# xmcd CD database file generated by Grip 3.2.0
# 
# Track frame offsets:
#       183
#       10368
#       20263
#       33070
#       48720
#       60695
#       70285
#       83890
#       97890
#       115265
#       132765
#       148493
# 
# Disc length: 2144 seconds
# 
# Revision: 5
# Processed by: cddbd v1.5.1PL0 Copyright (c) Steve Scherf et al.
# Submitted via: Grip 3.2.0
# 
DISCID=a2085e0c
DTITLE=Various Artist - The Best Of British Rock
DYEAR=1990
DGENRE=Rock
TTITLE0=John Mayall - I'm Your Witch Doctor
TTITLE1=Eric Clapton - Tribute to Elmore
TTITLE2=Clapton/Page - Freight Leader
TTITLE3=Jimmy Page - Down In The Boots
TTITLE4=Jeff Beck - Steelin'
TTITLE5=Jimmy Page - L.A. Breakdown
TTITLE6=Nicky Hopkins - Piano Shuffle
TTITLE7=Jeremy - Look Down At My Woman
TTITLE8=Savoy Brown - Cold Blooded Woman
TTITLE9=Albert Lee - The Next Milestone
TTITLE10=Albert Lee - Water On My Fire
TTITLE11=Fleetwood Mac - Somebody Had Their Head Kicked In Tonight
EXTD=
EXTT0=
EXTT1=
EXTT2=
EXTT3=
EXTT4=
EXTT5=
EXTT6=
EXTT7=
EXTT8=
EXTT9=
EXTT10=
EXTT11=
PLAYORDER=
